<svg width="18" height="18" viewBox="0 0 18 18" fill="none" xmlns="http://www.w3.org/2000/svg">
<path d="M11.0109 10.2234C11.2781 10.4578 11.4117 10.7695 11.4117 11.1586C11.4117 11.5805 11.2688 11.918 10.9828 12.1711C10.6969 12.4242 10.2961 12.5672 9.78047 12.6V9.69609C10.3383 9.80859 10.7484 9.98438 11.0109 10.2234Z" fill="#A8E04E"/>
<path d="M7.72734 7.32656C7.47892 7.09217 7.35469 6.79922 7.35469 6.44766C7.35469 6.07736 7.49062 5.76562 7.7625 5.5125C8.03905 5.25938 8.38828 5.12111 8.81016 5.09766V7.81875C8.33673 7.72031 7.97577 7.55623 7.72734 7.32656Z" fill="#A8E04E"/>
<path fill-rule="evenodd" clip-rule="evenodd" d="M9 18C13.9706 18 18 13.9705 18 9C18 4.02946 13.9706 0 9 0C4.02943 0 0 4.02946 0 9C0 13.9705 4.02943 18 9 18ZM8.81016 14.9133H9.78047V13.9852C10.8445 13.9008 11.6672 13.5984 12.2484 13.0781C12.8297 12.5531 13.1203 11.8523 13.1203 10.9758C13.1203 10.2351 12.9023 9.63517 12.4664 9.17578C12.0305 8.71639 11.3672 8.38125 10.4766 8.17031L9.78047 8.02266V5.10469C10.207 5.16094 10.5562 5.32266 10.8281 5.58984C11.1047 5.85703 11.2477 6.17811 11.257 6.55312H12.9375C12.9187 5.76096 12.6234 5.10469 12.0516 4.58437C11.4844 4.05939 10.7274 3.75469 9.78047 3.67031V2.7H8.81016V3.67031C7.81172 3.75936 7.03125 4.0617 6.46875 4.57734C5.90625 5.08826 5.625 5.75859 5.625 6.58828C5.625 7.29141 5.83827 7.87736 6.26484 8.34609C6.69608 8.81483 7.31953 9.14766 8.13516 9.34453L8.81016 9.51328V12.5859C8.31797 12.5297 7.91952 12.3703 7.61484 12.1078C7.31483 11.8406 7.14845 11.5055 7.11562 11.1023H5.4C5.4047 11.932 5.71171 12.607 6.32109 13.1273C6.93048 13.643 7.76017 13.9336 8.81016 13.9992V14.9133Z" fill="#A8E04E"/>
</svg>
